# xmcd
#
# Track frame offsets: 
#        150
#        16694
#        37700
#        55240
#        76796
#        96295
#        119196
#        144006
#        164425
#        185315
#        205178
#        226944
#        248874
#
# Disc length: 3556 seconds
#
# Revision: 8
# Processed by: cddbd v1.5.2PL0 Copyright (c) Steve Scherf et al.
# Submitted via: ExactAudioCopy v1.3
#
DISCID=9b0de20d
DTITLE=范曉萱 - 甜密。眼淚
DYEAR=1996
DGENRE=Pop
TTITLE0=自言自語
TTITLE1=眼淚
TTITLE2=你的甜密
TTITLE3=Rain
TTITLE4=魔力 ESP
TTITLE5=只喝可樂的貓
TTITLE6=別在我的背後說壞話
TTITLE7=深呼吸
TTITLE8=寂寞熱帶魚
TTITLE9=我喜歡這樣的安靜
TTITLE10=我曾説
TTITLE11=小偷
TTITLE12=等你說愛我
EXTD=YEAR: 1996
EXTT0=
EXTT1=
EXTT2=
EXTT3=
EXTT4=
EXTT5=
EXTT6=
EXTT7=
EXTT8=
EXTT9=
EXTT10=
EXTT11=
EXTT12=
PLAYORDER=
